<svg xmlns="http://www.w3.org/2000/svg" viewBox="0 0 148 61.12"><title>fxtm</title><g id="f9f7ed0d-38bf-4333-9899-af2a822c1593" data-name="Layer 2"><g id="b05e4a6a-5294-4e03-bfe3-7ebe74f58805" data-name="Layer 1"><g id="e4438602-1627-4dfe-a441-f4e70ca88292" data-name="fxtm"><path d="M19.28.5H147.5a0,0,0,0,1,0,0V41.84a18.78,18.78,0,0,1-18.78,18.78H19.28A18.78,18.78,0,0,1,.5,41.84V19.28A18.78,18.78,0,0,1,19.28.5Z" fill="#191d30" stroke="#1b8fc6" stroke-miterlimit="10"/><g id="b24f2f44-2a5b-471c-aa42-8b5c665c89ec" data-name="Symbols"><g id="aa69537d-0730-44a0-a9d5-59179f3987c4" data-name="style/logo/mobile_top"><g id="e3af2dce-2d88-4aae-bebd-f87ef3acfd92" data-name="Group"><path id="be7b29e9-d08d-4392-b0bf-67cad7bfe8d6" data-name="Combined-Shape-Copy" d="M84.63,30.87l3.26,3.4a5.83,5.83,0,0,1,1.59,4.1v3.11H86.26V38.37a2.45,2.45,0,0,0-.67-1.75l-3.22-3.39-3.32,3.5a2.42,2.42,0,0,0-.67,1.74v3H75.17v-3a5.71,5.71,0,0,1,1.61-4.08l3.31-3.52L76.8,27.42a5.72,5.72,0,0,1-1.61-4.09V20.48h3.22v2.84A2.27,2.27,0,0,0,79.08,25h0l3.29,3.48,3.21-3.35a2.35,2.35,0,0,0,.66-1.71V20.48h3.21v2.95a5.77,5.77,0,0,1-1.6,4.1Zm8.06-10.39H107v3.35h-5.59V41.48H98.24V23.83H92.69Zm35.62,0v21h-3.18V25.94l-4.68,9.67h-2.31l-4.7-9.67V41.48h-3.18v-21h4.16l4.86,10.38,4.89-10.38ZM65,23.82a2.68,2.68,0,0,0-2.44,2.56V29.2h7.74v3.34H62.53v8.94H59.31V26.6a6,6,0,0,1,5.82-6.12H72v3.34Z" fill="#fff" fill-rule="evenodd"/><g id="ef8cb0c4-5782-42dc-ba26-09cec09e66b1" data-name="style/logo/Ball"><g id="b7b91802-8958-4cc3-9ba2-0cf0579861f2" data-name="Group"><path id="b8903928-b8fb-426c-99cf-a8db4f489def" data-name="Fill-10" d="M33.87,21.62h0l5.26,5.28,5.22-5.25a5.41,5.41,0,0,0,.92-1.2,4.87,4.87,0,0,0,.61-1.75,15.76,15.76,0,0,0-10.5-4,15.58,15.58,0,0,0-3.15.32v2.68a5.25,5.25,0,0,0,.62,2.57,5.44,5.44,0,0,0,1,1.33" fill="#a4e22d"/><path id="fa1c15e9-e430-4302-9eb6-9dfce8d40d11" data-name="Combined-Shape" d="M48.33,21.51A15.79,15.79,0,0,1,49,38.77a8.23,8.23,0,0,0-1.38-3.2,8.77,8.77,0,0,0-.93-1.12l-5.27-5.26L46.61,24h0a8.61,8.61,0,0,0,1-1.15A7.6,7.6,0,0,0,48.33,21.51ZM31.7,24,37,29.19l-5.24,5.28A9.21,9.21,0,0,0,30.6,35.8a8.43,8.43,0,0,0-1.41,4.8v4.5a15.8,15.8,0,0,1,0-29v1.71A8.4,8.4,0,0,0,31.7,24ZM44.41,36.6a6.2,6.2,0,0,1,.92,1.22A5.63,5.63,0,0,1,46,40.6l0,1.74a15.72,15.72,0,0,1-13.7,3.74V40.59A5.58,5.58,0,0,1,32.92,38a5.52,5.52,0,0,1,1-1.36l5.27-5.26Z" fill="#ff5a24"/></g></g></g></g></g></g></g></g></svg>